# Made in Blockbench 4.12.4
mtllib stone_mill_block.mtl

o cube
v 1 0.4375 1
v 1 0.4375 0
v 1 0 1
v 1 0 0
v 0 0.4375 0
v 0 0.4375 1
v 0 0 0
v 0 0 1
vt 0 1
vt 0.25 1
vt 0.25 0.890625
vt 0 0.890625
vt 0 1
vt 0.25 1
vt 0.25 0.890625
vt 0 0.890625
vt 0 1
vt 0.25 1
vt 0.25 0.890625
vt 0 0.890625
vt 0 1
vt 0.25 1
vt 0.25 0.890625
vt 0 0.890625
vt 0 1
vt 0.25 1
vt 0.25 0.75
vt 0 0.75
vt 0 1
vt 0.25 1
vt 0.25 0.75
vt 0 0.75
vn 0 0 -1
vn 1 0 0
vn 0 0 1
vn -1 0 0
vn 0 1 0
vn 0 -1 0
usemtl none
f 4/4/1 7/3/1 5/2/1 2/1/1
f 3/8/2 4/7/2 2/6/2 1/5/2
f 8/12/3 3/11/3 1/10/3 6/9/3
f 7/16/4 8/15/4 6/14/4 5/13/4
f 6/20/5 1/19/5 2/18/5 5/17/5
f 7/24/6 4/23/6 3/22/6 8/21/6
o cylinder
v 0.5 0.4375 0.5
v 0.5 0.6875 0.5
v 0.6421523671018965 0.4375 0.9375
v 0.6421523671018965 0.6875 0.9375
v 0.8721597286540175 0.4375 0.7703898700780789
v 0.8721597286540175 0.6875 0.7703898700780789
v 0.960014723104242 0.4375 0.5
v 0.960014723104242 0.6875 0.5
v 0.8721597286540175 0.4375 0.2296101299219211
v 0.8721597286540175 0.6875 0.2296101299219211
v 0.6421523671018965 0.4375 0.06250000000000006
v 0.6421523671018965 0.6875 0.06250000000000006
v 0.3578476328981034 0.4375 0.06250000000000006
v 0.3578476328981034 0.6875 0.06250000000000006
v 0.12784027134598258 0.4375 0.22961012992192098
v 0.12784027134598258 0.6875 0.22961012992192098
v 0.03998527689575809 0.4375 0.4999999999999999
v 0.03998527689575809 0.6875 0.4999999999999999
v 0.12784027134598247 0.4375 0.7703898700780789
v 0.12784027134598247 0.6875 0.7703898700780789
v 0.3578476328981034 0.4375 0.9375
v 0.3578476328981034 0.6875 0.9375
vt 0.11500389302174188 0.9324014673782148
vt 0.09303893227370716 1
vt 0 0.9324014673782149
vt 0 0.921875
vt 0.071075 0.921875
vt 0.071075 1
vt 0 1
vt 0 0.8849965020912407
vt 0.06759876486739785 0.9069607480761023
vt 0 1
vt 0.115003125 0.932403125
vt 0.093040625 1
vt 0 0.932403125
vt 0 0.921875
vt 0.071075 0.921875
vt 0.071075 1
vt 0 1
vt 0.093040625 0.932403125
vt 0.115003125 1
vt 0 1
vt 0.093040625 0.932403125
vt 0.115003125 1
vt 0 1
vt 0 0.921875
vt 0.071075 0.921875
vt 0.071075 1
vt 0 1
vt 0.115003125 0.932403125
vt 0.093040625 1
vt 0 0.932403125
vt 0 0.8849965020912407
vt 0.06759876486739785 0.9069607480761023
vt 0 1
vt 0 0.921875
vt 0.071075 0.921875
vt 0.071075 1
vt 0 1
vt 0.11500389302174188 0.9324014673782148
vt 0.09303893227370716 1
vt 0 0.9324014673782149
vt 0 0.890625
vt 0.071075 0.890625
vt 0.0355375 1
vt 0 0.921875
vt 0.071075 0.921875
vt 0.071075 1
vt 0 1
vt 0.071075 1
vt 0 1
vt 0.0355375 0.890625
vt 0 1
vt 0.02196496074803478 0.9324014673782149
vt 0.11500389302174187 1
vt 0 0.921875
vt 0.071075 0.921875
vt 0.071075 1
vt 0 1
vt 0.06759876486739785 1
vt 0 0.9780357540151384
vt 0.06759876486739785 0.8849965020912407
vt 0 1
vt 0.021962499999999996 0.932403125
vt 0.115003125 1
vt 0 0.921875
vt 0.071075 0.921875
vt 0.071075 1
vt 0 1
vt 0.021962499999999996 1
vt 0 0.932403125
vt 0.115003125 0.932403125
vt 0.021962499999999996 1
vt 0 0.932403125
vt 0.115003125 0.932403125
vt 0 0.921875
vt 0.071075 0.921875
vt 0.071075 1
vt 0 1
vt 0 1
vt 0.021962499999999996 0.932403125
vt 0.115003125 1
vt 0.06759876486739785 1
vt 0 0.9780357540151384
vt 0.06759876486739785 0.8849965020912407
vt 0 0.921875
vt 0.071075 0.921875
vt 0.071075 1
vt 0 1
vt 0 1
vt 0.02196496074803478 0.9324014673782149
vt 0.11500389302174187 1
vt 0.071075 1
vt 0 1
vt 0.0355375 0.890625
vt 0 0.921875
vt 0.071075 0.921875
vt 0.071075 1
vt 0 1
vt 0 0.890625
vt 0.071075 0.890625
vt 0.0355375 1
vn 0 -1 0
vn 0.587785252292473 0 0.8090169943749476
vn 0 1 0
vn 0 -1 0
vn 0.9510565162951536 0 0.3090169943749475
vn 0 1 0
vn 0 -1 0
vn 0.9510565162951536 0 -0.30901699437494745
vn 0 1 0
vn 0 -1 0
vn 0.5877852522924732 0 -0.8090169943749473
vn 0 1 0
vn 0 -1 0
vn 0 0 -1
vn 0 1 0
vn 0 -1 0
vn -0.5877852522924732 0 -0.8090169943749476
vn 0 1 0
vn 0 -1 0
vn -0.9510565162951536 0 -0.30901699437494773
vn 0 1 0
vn 0 -1 0
vn -0.9510565162951536 0 0.3090169943749473
vn 0 1 0
vn 0 -1 0
vn -0.5877852522924735 0 0.8090169943749472
vn 0 1 0
vn 0 -1 0
vn 0 0 1
vn 0 1 0
usemtl none
f 13/25/7 11/26/7 9/27/7
f 11/28/8 13/29/8 14/30/8 12/31/8
f 12/32/9 14/33/9 10/34/9
f 15/35/10 13/36/10 9/37/10
f 13/38/11 15/39/11 16/40/11 14/41/11
f 14/42/12 16/43/12 10/44/12
f 17/45/13 15/46/13 9/47/13
f 15/48/14 17/49/14 18/50/14 16/51/14
f 16/52/15 18/53/15 10/54/15
f 19/55/16 17/56/16 9/57/16
f 17/58/17 19/59/17 20/60/17 18/61/17
f 18/62/18 20/63/18 10/64/18
f 21/65/19 19/66/19 9/67/19
f 19/68/20 21/69/20 22/70/20 20/71/20
f 20/72/21 22/73/21 10/74/21
f 23/75/22 21/76/22 9/77/22
f 21/78/23 23/79/23 24/80/23 22/81/23
f 22/82/24 24/83/24 10/84/24
f 25/85/25 23/86/25 9/87/25
f 23/88/26 25/89/26 26/90/26 24/91/26
f 24/92/27 26/93/27 10/94/27
f 27/95/28 25/96/28 9/97/28
f 25/98/29 27/99/29 28/100/29 26/101/29
f 26/102/30 28/103/30 10/104/30
f 29/105/31 27/106/31 9/107/31
f 27/108/32 29/109/32 30/110/32 28/111/32
f 28/112/33 30/113/33 10/114/33
f 11/115/34 29/116/34 9/117/34
f 29/118/35 11/119/35 12/120/35 30/121/35
f 30/122/36 12/123/36 10/124/36
o cube
v 0.5625 0.9375 0.5625
v 0.5625 0.9375 0.4375
v 0.5625 0.6875 0.5625
v 0.5625 0.6875 0.4375
v 0.4375 0.9375 0.4375
v 0.4375 0.9375 0.5625
v 0.4375 0.6875 0.4375
v 0.4375 0.6875 0.5625
vt 0 1
vt 0.03125 1
vt 0.03125 0.9375
vt 0 0.9375
vt 0 1
vt 0.03125 1
vt 0.03125 0.9375
vt 0 0.9375
vt 0 1
vt 0.03125 1
vt 0.03125 0.9375
vt 0 0.9375
vt 0 1
vt 0.03125 1
vt 0.03125 0.9375
vt 0 0.9375
vt 0 1
vt 0.03125 1
vt 0.03125 0.96875
vt 0 0.96875
vt 0 1
vt 0.03125 1
vt 0.03125 0.96875
vt 0 0.96875
vn 0 0 -1
vn 1 0 0
vn 0 0 1
vn -1 0 0
vn 0 1 0
vn 0 -1 0
usemtl none
f 34/128/37 37/127/37 35/126/37 32/125/37
f 33/132/38 34/131/38 32/130/38 31/129/38
f 38/136/39 33/135/39 31/134/39 36/133/39
f 37/140/40 38/139/40 36/138/40 35/137/40
f 36/144/41 31/143/41 32/142/41 35/141/41
f 37/148/42 34/147/42 33/146/42 38/145/42